<svg width="51" height="51" viewBox="0 0 51 51" fill="none" xmlns="http://www.w3.org/2000/svg">
<g clip-path="url(#clip0_0_109)">
<path d="M51 25.5C51 39.5832 39.5832 51 25.5 51C11.4168 51 0 39.5832 0 25.5C0 25.506 25.5 0.00288867 25.5 0C39.5832 0 51 11.4168 51 25.5Z" fill="#0052B4"/>
<path d="M25.4999 0C25.4985 0 25.497 9.96094e-05 25.4956 9.96094e-05L25.4999 0Z" fill="#F0F0F0"/>
<path d="M25.4319 25.5H25.5001C25.5001 25.4769 25.5001 25.4548 25.5001 25.4318C25.4774 25.4546 25.4547 25.4773 25.4319 25.5Z" fill="#F0F0F0"/>
<path d="M25.5 13.3044C25.5 8.81754 25.5 5.87737 25.5 0.00012207H25.4957C11.4144 0.00241309 0 11.4181 0 25.5H13.3043V18.0082L20.7961 25.5H25.4319C25.4547 25.4773 25.4774 25.4546 25.5001 25.4318C25.5001 23.7138 25.5001 22.1809 25.5001 20.7964L18.0082 13.3044H25.5Z" fill="#F0F0F0"/>
<path d="M12.901 3.32605C8.91276 5.59704 5.59717 8.91264 3.32617 12.9009V25.5H9.97839V9.97836V9.97826H25.5001C25.5001 7.88019 25.5001 5.88143 25.5001 3.32605H12.901Z" fill="#D80027"/>
<path d="M25.5 22.3642L16.4402 13.3045H13.3044C13.3044 13.3044 13.3044 13.3045 13.3044 13.3045L25.4999 25.5H25.5C25.5 25.5 25.5 23.3379 25.5 22.3642Z" fill="#D80027"/>
<path d="M15.3791 29.9348L16.7786 32.8611L19.9389 32.1307L18.5237 35.0495L21.0651 37.0649L17.9008 37.7781L17.9097 41.0217L15.3791 38.9924L12.8486 41.0217L12.8575 37.7781L9.69312 37.0649L12.2346 35.0495L10.8192 32.1307L13.9797 32.8611L15.3791 29.9348Z" fill="#F0F0F0"/>
<path d="M38.1786 35.4783L38.8784 36.9414L40.4586 36.5762L39.7509 38.0355L41.0217 39.0433L39.4395 39.3999L39.4439 41.0217L38.1786 40.007L36.9134 41.0217L36.9178 39.3999L35.3357 39.0433L36.6064 38.0355L35.8988 36.5762L37.4789 36.9414L38.1786 35.4783Z" fill="#F0F0F0"/>
<path d="M31.669 19.9565L32.3686 21.4198L33.9488 21.0544L33.2412 22.5138L34.5119 23.5216L32.9298 23.8782L32.9341 25.5L31.669 24.4853L30.4037 25.5L30.408 23.8782L28.8259 23.5216L30.0966 22.5138L29.389 21.0544L30.9692 21.4198L31.669 19.9565Z" fill="#F0F0F0"/>
<path d="M38.1786 11.0869L38.8784 12.5502L40.4586 12.1849L39.751 13.6443L41.0216 14.6519L39.4395 15.0086L39.4439 16.6305L38.1786 15.6158L36.9134 16.6305L36.9178 15.0086L35.3357 14.6519L36.6063 13.6443L35.8988 12.1849L37.4789 12.5502L38.1786 11.0869Z" fill="#F0F0F0"/>
<path d="M43.8648 17.7391L44.5644 19.2024L46.1446 18.837L45.437 20.2964L46.7077 21.3042L45.1255 21.6609L45.1299 23.2826L43.8648 22.268L42.5995 23.2826L42.6038 21.6609L41.0217 21.3042L42.2924 20.2964L41.5848 18.837L43.1649 19.2024L43.8648 17.7391Z" fill="#F0F0F0"/>
<path d="M39.7988 25.5L40.3492 27.194H42.1304L40.6893 28.241L41.2399 29.9348L39.7988 28.8879L38.3579 29.9348L38.9082 28.241L37.4673 27.194H39.2484L39.7988 25.5Z" fill="#F0F0F0"/>
</g>
<defs>
<clipPath id="clip0_0_109">
<rect width="51" height="51" fill="white"/>
</clipPath>
</defs>
</svg>
