<svg width="51" height="51" viewBox="0 0 51 51" fill="none" xmlns="http://www.w3.org/2000/svg">
<g clip-path="url(#clip0_0_602)">
<path d="M48.1684 13.8074C46.9901 11.5245 45.4456 9.38166 43.5319 7.46796C41.6181 5.55417 39.4752 4.00972 37.1924 2.83154L19.2279 19.2278L2.83154 37.1923C4.00982 39.4752 5.55427 41.6181 7.46796 43.5318C9.38166 45.4455 11.5246 46.99 13.8074 48.1683L31.7719 31.7719L48.1684 13.8074Z" fill="#FFDA44"/>
<path d="M7.46806 43.5319C8.53777 44.6016 9.67919 45.5557 10.8764 46.3957L46.3955 10.8764C45.5557 9.67919 44.6016 8.53777 43.5319 7.46806C42.4621 6.39836 41.3208 5.4444 40.1236 4.60449L4.60449 40.1236C5.4443 41.3206 6.39826 42.4622 7.46806 43.5319Z" fill="#D80027"/>
<path d="M7.46812 7.46791C-0.577026 15.5131 -2.12147 27.5955 2.83171 37.1923L37.1926 2.83159C27.5956 -2.12149 15.5132 -0.576846 7.46812 7.46791Z" fill="#338AF3"/>
<path d="M43.5319 43.5319C51.577 35.4869 53.1213 23.4045 48.1685 13.8076L13.8076 48.1684C23.4045 53.1214 35.487 51.5771 43.5319 43.5319Z" fill="#338AF3"/>
<path d="M13.5894 7.76025L14.9654 11.9953H19.4183L15.8159 14.6127L17.1919 18.8477L13.5894 16.2302L9.98672 18.8477L11.3629 14.6127L7.76025 11.9953H12.2132L13.5894 7.76025Z" fill="#FFDA44"/>
</g>
<defs>
<clipPath id="clip0_0_602">
<rect width="51" height="51" fill="white"/>
</clipPath>
</defs>
</svg>
