<svg width="51" height="51" viewBox="0 0 51 51" fill="none" xmlns="http://www.w3.org/2000/svg">
<g clip-path="url(#clip0_0_665)">
<path d="M0 25.5C0 11.4168 11.4168 0 25.5 0C39.5832 0 51 11.4168 51 25.5L25.5 27.7174L0 25.5Z" fill="#FFDA44"/>
<path d="M3.41223 38.25C7.82144 45.8717 16.0615 51 25.5 51C34.9385 51 43.1786 45.8717 47.5878 38.25L25.5 36.5869L3.41223 38.25Z" fill="#D80027"/>
<path d="M47.5878 38.25C49.7575 34.4993 51 30.1449 51 25.5H0C0 30.1449 1.24253 34.4993 3.41222 38.25H47.5878Z" fill="#0052B4"/>
<path d="M25.5 34.3694C30.3985 34.3694 34.3695 30.3984 34.3695 25.4999C34.3695 20.6014 30.3985 16.6304 25.5 16.6304C20.6015 16.6304 16.6305 20.6014 16.6305 25.4999C16.6305 30.3984 20.6015 34.3694 25.5 34.3694Z" fill="#FFDA44"/>
<path d="M25.5 31.0434C22.4433 31.0434 19.9565 28.5565 19.9565 25.4999V22.1738C19.9565 19.1171 22.4434 16.6304 25.5 16.6304C28.5566 16.6304 31.0435 19.1172 31.0435 22.1738V25.4999C31.0435 28.5566 28.5567 31.0434 25.5 31.0434Z" fill="#338AF3"/>
<path d="M34.3695 12.1954H27.7173C27.7173 10.9708 26.7245 9.97803 25.4999 9.97803C24.2753 9.97803 23.2825 10.9708 23.2825 12.1954H16.6303C16.6303 13.4201 17.697 14.4128 18.9215 14.4128H18.8477C18.8477 15.6375 19.8404 16.6302 21.0651 16.6302C21.0651 17.8549 22.0578 18.8476 23.2825 18.8476H27.7173C28.942 18.8476 29.9347 17.8549 29.9347 16.6302C31.1594 16.6302 32.1521 15.6375 32.1521 14.4128H32.0783C33.3029 14.4128 34.3695 13.42 34.3695 12.1954V12.1954Z" fill="black"/>
</g>
<defs>
<clipPath id="clip0_0_665">
<rect width="51" height="51" fill="white"/>
</clipPath>
</defs>
</svg>
