<svg width="51" height="51" viewBox="0 0 51 51" fill="none" xmlns="http://www.w3.org/2000/svg">
<g clip-path="url(#clip0_0_943)">
<path d="M25.5 51C39.5833 51 51 39.5833 51 25.5C51 11.4167 39.5833 0 25.5 0C11.4167 0 0 11.4167 0 25.5C0 39.5833 11.4167 51 25.5 51Z" fill="#F0F0F0"/>
<path d="M33.7822 18.8478H30.4459C30.4735 19.2144 30.4891 19.5844 30.4891 19.9564C30.4891 22.4231 29.8725 24.8141 28.7976 26.516C28.466 27.0409 27.9088 27.7822 27.1629 28.2823V18.8477H23.8369V28.2823C23.0911 27.7822 22.5338 27.041 22.2022 26.516C21.1272 24.8141 20.5107 22.4231 20.5107 19.9564C20.5107 19.5844 20.5265 19.2143 20.554 18.8478H17.2176C17.1962 19.2126 17.1846 19.5822 17.1846 19.9564C17.1846 26.7952 20.837 32.1521 25.4998 32.1521C30.1625 32.1521 33.815 26.7952 33.815 19.9564C33.8152 19.5822 33.8035 19.2126 33.7822 18.8478Z" fill="#D80027"/>
<path d="M10.5326 12.1957H13.8586V14.4131H17.1847V12.1957H20.5108V14.4131H23.8368V12.1957H27.1629V14.4131H30.4889V12.1957H33.815V14.4131H37.141V12.1957H40.4671V14.4131H48.4694C44.3451 5.88343 35.6096 0 25.5 0C15.3903 0 6.6549 5.88343 2.53027 14.4131H10.5326V12.1957Z" fill="#6DA544"/>
<path d="M40.4674 36.5869V38.8043H37.1413V36.5869H33.8153V38.8043H30.4892V36.5869H27.1632V38.8043H23.8371V36.5869H20.5111V38.8043H17.185V36.5869H13.8586V38.8043H10.5326V36.5869H2.53027C6.6549 45.1166 15.3902 51 25.5 51C35.6098 51 44.3451 45.1166 48.4697 36.5869H40.4674Z" fill="#D80027"/>
</g>
<defs>
<clipPath id="clip0_0_943">
<rect width="51" height="51" fill="white"/>
</clipPath>
</defs>
</svg>
