<svg width="51" height="51" viewBox="0 0 51 51" fill="none" xmlns="http://www.w3.org/2000/svg">
<g clip-path="url(#clip0_0_948)">
<path d="M25.5 51C39.5833 51 51 39.5833 51 25.5C51 11.4167 39.5833 0 25.5 0C11.4167 0 0 11.4167 0 25.5C0 39.5833 11.4167 51 25.5 51Z" fill="#F0F0F0"/>
<path d="M25.5 0C14.5359 0 5.18903 6.92006 1.58606 16.6305H49.414C45.8109 6.92006 36.4641 0 25.5 0Z" fill="#A2001D"/>
<path d="M25.5 50.9996C36.4641 50.9996 45.8109 44.0796 49.4139 34.3691H1.58606C5.18903 44.0796 14.5359 50.9996 25.5 50.9996Z" fill="black"/>
<path d="M19.4022 23.8368C19.3883 23.8368 19.3746 23.8377 19.3607 23.8379V23.8368H14.4861C14.7332 22.8819 15.5996 22.1737 16.6305 22.1737V18.8477C13.5738 18.8477 11.087 21.3345 11.087 24.3911V27.1075V27.1629H19.3607H19.4022C19.7079 27.1629 19.9565 27.4117 19.9565 27.7173V28.8259H8.86951V32.152H23.2826V27.7172C23.2826 25.5776 21.5418 23.8368 19.4022 23.8368Z" fill="#496E2D"/>
<path d="M27.7174 28.8259V18.8477H24.3914V32.1521H29.9348V28.8259H27.7174Z" fill="#496E2D"/>
<path d="M38.8043 28.826V18.8477H35.4783V28.826H34.3695V25.5H31.0435V32.1522H41.0217V28.826H38.8043Z" fill="#496E2D"/>
</g>
<defs>
<clipPath id="clip0_0_948">
<rect width="51" height="51" fill="white"/>
</clipPath>
</defs>
</svg>
