<svg width="51" height="51" viewBox="0 0 51 51" fill="none" xmlns="http://www.w3.org/2000/svg">
<g clip-path="url(#clip0_0_991)">
<path d="M25.5 51C39.5833 51 51 39.5833 51 25.5C51 11.4167 39.5833 0 25.5 0C11.4167 0 0 11.4167 0 25.5C0 39.5833 11.4167 51 25.5 51Z" fill="#F0F0F0"/>
<path d="M15.5219 16.6305H49.4139C45.8111 6.92006 36.4641 0 25.5001 0C18.4583 0 12.084 2.8547 7.46973 7.46961L15.5219 16.6305Z" fill="black"/>
<path d="M15.5219 34.3691H49.4139C45.8111 44.0796 36.4641 50.9996 25.5001 50.9996C18.4583 50.9996 12.084 48.1449 7.46973 43.53L15.5219 34.3691Z" fill="#6DA544"/>
<path d="M7.46876 7.46875C-2.48959 17.4271 -2.48959 33.5729 7.46876 43.5313C11.5839 39.4162 15.5417 35.4584 25.5 25.5L7.46876 7.46875Z" fill="#D80027"/>
<path d="M10.1206 19.9561L11.52 22.8825L14.6805 22.152L13.265 25.0707L15.8066 27.0862L12.6423 27.7993L12.651 31.043L10.1206 29.0136L7.59 31.043L7.59886 27.7993L4.43457 27.0862L6.976 25.0707L5.56075 22.152L8.72106 22.8825L10.1206 19.9561Z" fill="#F0F0F0"/>
</g>
<defs>
<clipPath id="clip0_0_991">
<rect width="51" height="51" fill="white"/>
</clipPath>
</defs>
</svg>
