<svg width="51" height="51" viewBox="0 0 51 51" fill="none" xmlns="http://www.w3.org/2000/svg">
<g clip-path="url(#clip0_0_1205)">
<path d="M25.5 51C39.5833 51 51 39.5833 51 25.5C51 11.4167 39.5833 0 25.5 0C11.4167 0 0 11.4167 0 25.5C0 39.5833 11.4167 51 25.5 51Z" fill="#F0F0F0"/>
<path d="M51.001 25.5C51.001 15.3902 45.1175 6.6549 36.5879 2.53027V48.4696C45.1175 44.3451 51.001 35.6097 51.001 25.5Z" fill="#D80027"/>
<path d="M0 25.5C0 35.6098 5.88343 44.3451 14.4131 48.4697V2.53027C5.88343 6.6549 0 15.3902 0 25.5Z" fill="#6DA544"/>
<path d="M18.8477 25.5C18.8477 29.1739 21.826 32.1522 25.4999 32.1522C29.1738 32.1522 32.1521 29.1739 32.1521 25.5V23.2826H18.8477V25.5Z" fill="#6DA544"/>
<path d="M34.3701 21.0652H27.7179C27.7179 19.8406 26.7251 18.8478 25.5005 18.8478C24.2759 18.8478 23.2831 19.8406 23.2831 21.0652H16.6309C16.6309 22.2899 17.6976 23.2826 18.9221 23.2826H18.8483C18.8483 24.5073 19.841 25.5 21.0657 25.5C21.0657 26.7247 22.0584 27.7174 23.2831 27.7174H27.7179C28.9426 27.7174 29.9353 26.7247 29.9353 25.5C31.16 25.5 32.1527 24.5073 32.1527 23.2826H32.0788C33.3035 23.2826 34.3701 22.2899 34.3701 21.0652Z" fill="#FF9811"/>
</g>
<defs>
<clipPath id="clip0_0_1205">
<rect width="51" height="51" fill="white"/>
</clipPath>
</defs>
</svg>
