<svg width="51" height="51" viewBox="0 0 51 51" fill="none" xmlns="http://www.w3.org/2000/svg">
<g clip-path="url(#clip0_0_1262)">
<path d="M25.5 51C39.5833 51 51 39.5833 51 25.5C51 11.4167 39.5833 0 25.5 0C11.4167 0 0 11.4167 0 25.5C0 39.5833 11.4167 51 25.5 51Z" fill="#D80027"/>
<path d="M40.5701 20.9269H29.0578L25.5004 9.97827L21.9429 20.9269H10.4307L19.7442 27.6936L16.1867 38.6426L25.5004 31.8758L34.814 38.6427L31.2565 27.6937L40.5701 20.9269ZM22.3509 26.8466L23.5539 23.1442H27.4467L28.6498 26.8466V26.8467L25.5004 29.1348L22.351 26.8467L22.3509 26.8466ZM26.7264 20.9269H24.2745L25.5004 17.1537L26.7264 20.9269ZM30.5359 25.4763L29.7782 23.1443H33.7455L30.5359 25.4763ZM21.2224 23.1443L20.4647 25.4763L17.255 23.1443H21.2224ZM20.4045 32.8373L21.6304 29.0642L23.6142 30.5054L20.4045 32.8373ZM27.3866 30.5055L29.3703 29.0643L30.5963 32.8374L27.3866 30.5055Z" fill="#FFDA44"/>
</g>
<defs>
<clipPath id="clip0_0_1262">
<rect width="51" height="51" fill="white"/>
</clipPath>
</defs>
</svg>
