<svg width="51" height="51" viewBox="0 0 51 51" fill="none" xmlns="http://www.w3.org/2000/svg">
<g clip-path="url(#clip0_0_1315)">
<path d="M25.5 51C39.5833 51 51 39.5833 51 25.5C51 11.4167 39.5833 0 25.5 0C11.4167 0 0 11.4167 0 25.5C0 39.5833 11.4167 51 25.5 51Z" fill="#F0F0F0"/>
<path d="M25.4999 0C14.5358 0 5.18891 6.92006 1.58594 16.6305H49.4139C45.8108 6.92006 36.464 0 25.4999 0Z" fill="#A2001D"/>
<path d="M25.4999 51.0001C36.464 51.0001 45.8108 44.08 49.4138 34.3696H1.58594C5.18891 44.08 14.5358 51.0001 25.4999 51.0001Z" fill="#0052B4"/>
</g>
<defs>
<clipPath id="clip0_0_1315">
<rect width="51" height="51" fill="white"/>
</clipPath>
</defs>
</svg>
