<svg width="51" height="51" viewBox="0 0 51 51" fill="none" xmlns="http://www.w3.org/2000/svg">
<g clip-path="url(#clip0_0_1319)">
<path d="M51 25.5C51 39.5832 39.5832 51 25.5 51C11.4168 51 0 39.5832 0 25.5C0 25.5061 25.5 0.00278906 25.5 0C39.5832 0 51 11.4168 51 25.5Z" fill="#0052B4"/>
<path d="M25.4316 25.5001H25.4999C25.4999 25.4772 25.4999 25.4549 25.4999 25.4319C25.4772 25.4547 25.4545 25.4774 25.4316 25.5001Z" fill="#F0F0F0"/>
<path d="M25.5 13.3043C25.5 8.81742 25.5 5.87745 25.5 0H25.4957C11.4144 0.00239062 0 11.4181 0 25.5H13.3043V18.0083L20.7961 25.5H25.4319C25.4546 25.4773 25.4774 25.4546 25.5001 25.4318C25.5001 23.7138 25.5001 22.1809 25.5001 20.7962L18.0082 13.3043H25.5Z" fill="#F0F0F0"/>
<path d="M12.901 3.32617C8.91276 5.59717 5.59717 8.91276 3.32617 12.901V25.5001H9.97839V9.97858V9.97839H25.5001C25.5001 7.88031 25.5001 5.88155 25.5001 3.32617H12.901Z" fill="#D80027"/>
<path d="M25.5003 22.3642L16.4405 13.3044C16.4405 13.3044 13.3047 13.3046 13.3047 13.3044V13.3046L25.5002 25.5H25.5003C25.5003 25.5 25.5003 23.3378 25.5003 22.3642Z" fill="#D80027"/>
<path d="M44.1598 18.9219L44.7101 20.6158H46.4912L45.0503 21.6627L45.6007 23.3566L44.1598 22.3098L42.7187 23.3566L43.2692 21.6627L41.8281 20.6158H43.6092L44.1598 18.9219Z" fill="#D80027"/>
<path d="M37.7932 31.1174L38.6188 33.6585H41.2905L39.1289 35.2287L39.9547 37.7696L37.7932 36.1993L35.6317 37.7696L36.4574 35.2287L34.2959 33.6585H36.9675L37.7932 31.1174Z" fill="#D80027"/>
<path d="M38.0334 11.1609L38.7215 13.2785H40.9479L39.1465 14.5869L39.8346 16.7043L38.0334 15.3956L36.2323 16.7043L36.9203 14.5869L35.1191 13.2785H37.3454L38.0334 11.1609Z" fill="#D80027"/>
<path d="M31.9074 18.8479L32.733 21.3889H35.4047L33.2432 22.9592L34.069 25.5001L31.9074 23.9298L29.7459 25.5001L30.5717 22.9592L28.4102 21.3889H31.0818L31.9074 18.8479Z" fill="#D80027"/>
</g>
<defs>
<clipPath id="clip0_0_1319">
<rect width="51" height="51" fill="white"/>
</clipPath>
</defs>
</svg>
