<svg width="51" height="51" viewBox="0 0 51 51" fill="none" xmlns="http://www.w3.org/2000/svg">
<g clip-path="url(#clip0_0_1396)">
<path d="M25.5 51C39.5833 51 51 39.5833 51 25.5C51 11.4167 39.5833 0 25.5 0C11.4167 0 0 11.4167 0 25.5C0 39.5833 11.4167 51 25.5 51Z" fill="#F0F0F0"/>
<path d="M0.878906 32.1523C2.35432 37.6268 5.60607 42.3716 9.97872 45.7313V32.1523H0.878906Z" fill="#D80027"/>
<path d="M23.2832 50.9031C24.0141 50.9661 24.7533 51.0001 25.5006 51.0001C37.2823 51.0001 47.196 43.0094 50.1222 32.1523H23.2832V50.9031Z" fill="#D80027"/>
<path d="M50.1222 18.8478C47.196 7.99076 37.2823 0 25.5006 0C24.7533 0 24.0141 0.0340664 23.2832 0.0970195V18.8478H50.1222Z" fill="#D80027"/>
<path d="M9.97872 5.26904C5.60607 8.62887 2.35432 13.3736 0.878906 18.848H9.97872V5.26904Z" fill="#D80027"/>
<path d="M50.7841 22.1738H19.9566H19.9565V0.605957C17.6 1.12851 15.3658 1.97549 13.3043 3.10037V22.1736V22.1737H0.215854C0.0739102 23.2625 0 24.3726 0 25.4998C0 26.6271 0.0739102 27.7372 0.215854 28.8259H13.3042H13.3043V47.8992C15.3658 49.024 17.6 49.8712 19.9565 50.3936V28.8262V28.826H50.7841C50.9259 27.7372 51 26.6271 51 25.4998C51 24.3726 50.9259 23.2625 50.7841 22.1738Z" fill="#0052B4"/>
</g>
<defs>
<clipPath id="clip0_0_1396">
<rect width="51" height="51" fill="white"/>
</clipPath>
</defs>
</svg>
