<svg width="78" height="78" viewBox="0 0 78 78" fill="none" xmlns="http://www.w3.org/2000/svg">
<g clip-path="url(#clip0_5_18)">
<path d="M39 78C60.5391 78 78 60.5391 78 39C78 17.4609 60.5391 0 39 0C17.4609 0 0 17.4609 0 39C0 60.5391 17.4609 78 39 78Z" fill="#F0F0F0"/>
<path d="M0 39.0002C0 53.7829 8.22504 66.6437 20.3478 73.2582V4.74219C8.22504 11.3566 0 24.2175 0 39.0002Z" fill="#D80027"/>
<path d="M75.5744 52.5649C77.142 48.3399 78 43.7702 78 38.9997C78 34.2292 77.142 29.6594 75.5744 25.4346H2.42592C0.858152 29.6594 0 34.2292 0 38.9997C0 43.7702 0.858152 48.3399 2.42592 52.5649L39 55.9562L75.5744 52.5649Z" fill="#D80027"/>
<path d="M38.9999 78.0003C55.7686 78.0003 70.0637 67.4167 75.5742 52.5654H2.42578C7.93605 67.4167 22.2314 78.0003 38.9999 78.0003Z" fill="#6DA544"/>
<path d="M0 39.0002C0 57.0193 12.2212 72.1815 28.826 76.6567V1.34375C12.2212 5.819 0 20.9812 0 39.0002Z" fill="#D80027"/>
<path d="M23.8592 17.1624L20.2622 13.5654L17.8643 15.9636L15.4664 13.5654L11.8694 17.1624L14.2675 19.5605L11.8691 21.9587L15.4661 25.5556L17.8642 23.1574L20.2622 25.5556L23.8592 21.9587L21.4612 19.5605L23.8592 17.1624Z" fill="#F0F0F0"/>
</g>
<defs>
<clipPath id="clip0_5_18">
<rect width="78" height="78" fill="white"/>
</clipPath>
</defs>
</svg>
