<svg width="51" height="51" viewBox="0 0 51 51" fill="none" xmlns="http://www.w3.org/2000/svg">
<g clip-path="url(#clip0_0_1440)">
<path d="M25.5 51C39.5833 51 51 39.5833 51 25.5C51 11.4167 39.5833 0 25.5 0C11.4167 0 0 11.4167 0 25.5C0 39.5833 11.4167 51 25.5 51Z" fill="#F0F0F0"/>
<path d="M0 25.5C0 39.5832 11.4168 51 25.5 51C25.5 41.3025 25.5 25.5 25.5 25.5C25.5 25.5 8.86952 25.5 0 25.5Z" fill="#0052B4"/>
<path d="M25.5 0C39.5832 0 51 11.4168 51 25.5C41.3025 25.5 25.5 25.5 25.5 25.5C25.5 25.5 25.5 8.86952 25.5 0Z" fill="#D80027"/>
<path d="M15.1801 8.86963L16.8313 13.9515H22.1747L17.8518 17.0922L19.503 22.1741L15.1801 19.0333L10.8573 22.1741L12.5084 17.0922L8.18555 13.9515H13.5289L15.1801 8.86963Z" fill="#0052B4"/>
<path d="M35.8207 28.8262L37.472 33.908H42.8153L38.4924 37.0487L40.1436 42.1306L35.8207 38.9898L31.4979 42.1306L33.149 37.0487L28.8262 33.908H34.1695L35.8207 28.8262Z" fill="#D80027"/>
</g>
<defs>
<clipPath id="clip0_0_1440">
<rect width="51" height="51" fill="white"/>
</clipPath>
</defs>
</svg>
