<svg width="51" height="51" viewBox="0 0 51 51" fill="none" xmlns="http://www.w3.org/2000/svg">
<g clip-path="url(#clip0_0_1456)">
<path d="M25.5 51C39.5833 51 51 39.5833 51 25.5C51 11.4167 39.5833 0 25.5 0C11.4167 0 0 11.4167 0 25.5C0 39.5833 11.4167 51 25.5 51Z" fill="#F0F0F0"/>
<path d="M25.5 0C15.3902 0 6.6549 5.88343 2.53027 14.4131H48.4696C44.3451 5.88343 35.6096 0 25.5 0Z" fill="#D80027"/>
<path d="M25.5 51C35.6097 51 44.3451 45.1166 48.4697 36.5869H2.53027C6.6549 45.1166 15.3902 51 25.5 51Z" fill="#0052B4"/>
<path d="M31.772 18.1196L29.4201 20.4715C30.4233 21.4747 31.0438 22.8605 31.0438 24.3913C31.0438 27.4529 28.5619 29.9348 25.5004 29.9348C22.4389 29.9348 19.9569 27.4528 19.9569 24.3913C19.9569 22.8605 20.5775 21.4747 21.5806 20.4715L19.2288 18.1196C17.6236 19.7245 16.6309 21.9419 16.6309 24.3913C16.6309 29.2899 20.6019 33.2609 25.5004 33.2609C30.3989 33.2609 34.3699 29.2898 34.3699 24.3913C34.3698 21.9419 33.3771 19.7245 31.772 18.1196Z" fill="#6DA544"/>
<path d="M25.5002 21.0654L26.3259 23.6065H28.9975L26.8361 25.1767L27.6617 27.7176L25.5002 26.1473L23.3387 27.7176L24.1644 25.1767L22.0029 23.6065H24.6746L25.5002 21.0654Z" fill="#FFDA44"/>
</g>
<defs>
<clipPath id="clip0_0_1456">
<rect width="51" height="51" fill="white"/>
</clipPath>
</defs>
</svg>
