<svg width="51" height="51" viewBox="0 0 51 51" fill="none" xmlns="http://www.w3.org/2000/svg">
<g clip-path="url(#clip0_0_1492)">
<path d="M0 25.4999C0 36.4639 6.92006 45.8107 16.6303 49.4137L18.8478 25.4998L16.6303 1.58594C6.92006 5.18901 0 14.5358 0 25.4999Z" fill="#6DA544"/>
<path d="M50.9996 25.5C50.9996 11.4168 39.5828 0 25.4996 0C22.3804 0 19.3924 0.5611 16.6299 1.58608V49.4139C19.3924 50.439 22.3804 51 25.4996 51C39.5828 51 50.9996 39.5832 50.9996 25.5Z" fill="#D80027"/>
<path d="M16.6303 34.3694C21.5288 34.3694 25.4998 30.3984 25.4998 25.4999C25.4998 20.6014 21.5288 16.6304 16.6303 16.6304C11.7318 16.6304 7.76074 20.6014 7.76074 25.4999C7.76074 30.3984 11.7318 34.3694 16.6303 34.3694Z" fill="#FFDA44"/>
<path d="M11.6416 21.0654V26.6089C11.6416 29.3643 13.8752 31.598 16.6307 31.598C19.3862 31.598 21.6199 29.3644 21.6199 26.6089V21.0654H11.6416Z" fill="#D80027"/>
<path d="M16.6309 28.2715C15.7138 28.2715 14.9678 27.5254 14.9678 26.6084V24.3911H18.2938V26.6085C18.2938 27.5254 17.5478 28.2715 16.6309 28.2715Z" fill="#F0F0F0"/>
</g>
<defs>
<clipPath id="clip0_0_1492">
<rect width="51" height="51" fill="white"/>
</clipPath>
</defs>
</svg>
