<svg width="51" height="51" viewBox="0 0 51 51" fill="none" xmlns="http://www.w3.org/2000/svg">
<g clip-path="url(#clip0_0_1506)">
<path d="M25.5 51C39.5833 51 51 39.5833 51 25.5C51 11.4167 39.5833 0 25.5 0C11.4167 0 0 11.4167 0 25.5C0 39.5833 11.4167 51 25.5 51Z" fill="#F0F0F0"/>
<path d="M51.0002 25.5C51.0002 11.4168 39.5834 0 25.5002 0C20.5118 0 15.8587 1.43388 11.9283 3.90977L17.5176 6.28455L9.97852 9.48779L17.5176 12.6909L9.97852 15.894L17.5176 19.0969L9.97852 22.2995L17.5176 25.5018L9.97852 28.7048L17.5176 31.9077L9.97852 35.1102L17.5176 38.3131L9.97852 41.5161L17.5176 44.7186L11.9308 47.0921C15.8606 49.5668 20.5128 51 25.5002 51C39.5834 51 51.0002 39.5832 51.0002 25.5Z" fill="#751A46"/>
</g>
<defs>
<clipPath id="clip0_0_1506">
<rect width="51" height="51" fill="white"/>
</clipPath>
</defs>
</svg>
