<svg width="51" height="51" viewBox="0 0 51 51" fill="none" xmlns="http://www.w3.org/2000/svg">
<g clip-path="url(#clip0_0_1599)">
<path d="M25.5 51C39.5833 51 51 39.5833 51 25.5C51 11.4167 39.5833 0 25.5 0C11.4167 0 0 11.4167 0 25.5C0 39.5833 11.4167 51 25.5 51Z" fill="#6DA544"/>
<path d="M14.4131 30.4893C14.4131 32.3262 15.9022 33.8153 17.7391 33.8153H27.7174C27.7174 35.3461 28.9583 36.587 30.4891 36.587H33.8152C35.346 36.587 36.5869 35.3461 36.5869 33.8153V30.4893H14.4131Z" fill="#F0F0F0"/>
<path d="M36.8639 14.4131V22.174C36.8639 23.3967 35.8692 24.3914 34.6465 24.3914V27.7174C37.7032 27.7174 40.1899 25.2306 40.1899 22.174V14.4131H36.8639Z" fill="#F0F0F0"/>
<path d="M13.027 22.174C13.027 23.3967 12.0323 24.3914 10.8096 24.3914V27.7174C13.8663 27.7174 16.353 25.2306 16.353 22.174V14.4131H13.027V22.174Z" fill="#F0F0F0"/>
<path d="M31.875 14.4131H35.2011V22.174H31.875V14.4131Z" fill="#F0F0F0"/>
<path d="M26.8851 18.8479C26.8851 19.1536 26.6364 19.4022 26.3308 19.4022C26.0252 19.4022 25.7765 19.1535 25.7765 18.8479V14.4131H22.4504V18.8479C22.4504 19.1536 22.2017 19.4022 21.8961 19.4022C21.5905 19.4022 21.3418 19.1535 21.3418 18.8479V14.4131H18.0156V18.8479C18.0156 20.9876 19.7564 22.7284 21.8961 22.7284C22.7202 22.7284 23.4844 22.4694 24.1135 22.0295C24.7425 22.4693 25.5068 22.7284 26.3309 22.7284C26.4969 22.7284 26.66 22.7167 26.8205 22.6963C26.5848 23.6674 25.7103 24.3914 24.6678 24.3914V27.7174C27.7246 27.7174 30.2113 25.2306 30.2113 22.174V18.8479V14.4131H26.8852V18.8479H26.8851Z" fill="#F0F0F0"/>
<path d="M18.0156 24.3916H23.0048V27.7177H18.0156V24.3916Z" fill="#F0F0F0"/>
</g>
<defs>
<clipPath id="clip0_0_1599">
<rect width="51" height="51" fill="white"/>
</clipPath>
</defs>
</svg>
