<svg width="51" height="51" viewBox="0 0 51 51" fill="none" xmlns="http://www.w3.org/2000/svg">
<g clip-path="url(#clip0_0_1608)">
<path d="M25.5 51C39.5833 51 51 39.5833 51 25.5C51 11.4167 39.5833 0 25.5 0C11.4167 0 0 11.4167 0 25.5C0 39.5833 11.4167 51 25.5 51Z" fill="#F0F0F0"/>
<path d="M41.0251 5.27133C36.7253 1.96619 31.3429 0 25.5004 0C19.6579 0 14.2754 1.96629 9.97559 5.27133L25.5004 20.796L41.0251 5.27133Z" fill="#0052B4"/>
<path d="M5.27123 9.9751C1.96629 14.2749 0 19.6573 0 25.4998C0 31.3423 1.96629 36.7248 5.27133 41.0247L20.7961 25.4998L5.27123 9.9751Z" fill="#0052B4"/>
<path d="M9.97559 45.7288C14.2755 49.034 19.6579 51.0001 25.5004 51.0001C31.3429 51.0001 36.7253 49.0339 41.0252 45.7288L25.5004 30.2041L9.97559 45.7288Z" fill="#0052B4"/>
<path d="M45.7288 41.0245C49.034 36.7247 51.0001 31.3423 51.0001 25.4998C51.0001 19.6573 49.034 14.2749 45.7288 9.9751L30.2041 25.4998L45.7288 41.0245Z" fill="#0052B4"/>
</g>
<defs>
<clipPath id="clip0_0_1608">
<rect width="51" height="51" fill="white"/>
</clipPath>
</defs>
</svg>
