<svg width="51" height="51" viewBox="0 0 51 51" fill="none" xmlns="http://www.w3.org/2000/svg">
<g clip-path="url(#clip0_0_1615)">
<path d="M36.5866 2.53028C33.2341 0.909234 29.4731 0 25.4996 0C21.5262 0 17.7652 0.909234 14.4127 2.53028L12.1953 25.5L14.4127 48.4697C17.7652 50.0908 21.5262 51 25.4996 51C29.4731 51 33.2341 50.0908 36.5866 48.4697L38.804 25.5L36.5866 2.53028Z" fill="#FFDA44"/>
<path d="M25.4997 16.6304L27.701 23.4058H34.8259L29.0621 27.5937L31.2636 34.3694L25.4997 30.1818L19.7358 34.3694L21.9376 27.5937L16.1738 23.4058H23.2982L25.4997 16.6304Z" fill="#496E2D"/>
<path d="M14.4131 2.53125C5.88353 6.65578 0 15.3904 0 25.5001C0 35.6097 5.88353 44.3444 14.4131 48.4689V2.53125Z" fill="#496E2D"/>
<path d="M36.5869 2.53125V48.4689C45.1165 44.3444 51 35.6097 51 25.5001C51 15.3904 45.1165 6.65578 36.5869 2.53125Z" fill="#D80027"/>
</g>
<defs>
<clipPath id="clip0_0_1615">
<rect width="51" height="51" fill="white"/>
</clipPath>
</defs>
</svg>
