<svg width="51" height="51" viewBox="0 0 51 51" fill="none" xmlns="http://www.w3.org/2000/svg">
<g clip-path="url(#clip0_0_1684)">
<path d="M25.5 51C39.5833 51 51 39.5833 51 25.5C51 11.4167 39.5833 0 25.5 0C11.4167 0 0 11.4167 0 25.5C0 39.5833 11.4167 51 25.5 51Z" fill="#F0F0F0"/>
<path d="M49.4139 16.6307H22.1739V9.97852H8.86952V16.6307H1.58608C0.5611 19.3931 0 22.3811 0 25.5002C0 28.6194 0.5611 31.6073 1.58608 34.3698L25.5 36.5872L49.4139 34.3698C50.4389 31.6073 51 28.6194 51 25.5002C51 22.3811 50.4389 19.3931 49.4139 16.6307Z" fill="#0052B4"/>
<path d="M25.4999 50.9996C36.464 50.9996 45.8108 44.0796 49.4138 34.3691H1.58594C5.18891 44.0796 14.5358 50.9996 25.4999 50.9996Z" fill="#D80027"/>
<path d="M8.86914 16.6301V18.8474C8.86914 23.9396 15.5214 25.4998 15.5214 25.4998C15.5214 25.4998 22.1736 23.9396 22.1736 18.8474V16.6301L19.9562 18.8475L15.5214 15.5215L11.0865 18.8475L8.86914 16.6301Z" fill="#F0F0F0"/>
</g>
<defs>
<clipPath id="clip0_0_1684">
<rect width="51" height="51" fill="white"/>
</clipPath>
</defs>
</svg>
