<svg width="51" height="51" viewBox="0 0 51 51" fill="none" xmlns="http://www.w3.org/2000/svg">
<g clip-path="url(#clip0_0_1720)">
<path d="M25.5 51C39.5833 51 51 39.5833 51 25.5C51 11.4167 39.5833 0 25.5 0C11.4167 0 0 11.4167 0 25.5C0 39.5833 11.4167 51 25.5 51Z" fill="#F0F0F0"/>
<path d="M34.3699 25.5004C34.3699 27.7178 30.3989 33.2612 25.5004 33.2612C20.6019 33.2612 16.6309 27.7178 16.6309 25.5004C16.6309 20.6018 20.6019 16.6309 25.5004 16.6309C30.3989 16.6309 34.3699 20.6018 34.3699 25.5004Z" fill="#D80027"/>
<path d="M34.3699 25.5C34.3699 30.3986 30.3989 34.3695 25.5004 34.3695C20.6019 34.3695 16.6309 30.3986 16.6309 25.5" fill="#0052B4"/>
<path d="M34.9004 33.3398L37.2519 30.9883L38.8196 32.556L36.4681 34.9075L34.9004 33.3398Z" fill="black"/>
<path d="M30.9805 37.2598L33.332 34.9082L34.8997 36.476L32.5482 38.8275L30.9805 37.2598Z" fill="black"/>
<path d="M39.6035 38.043L41.955 35.6914L43.5227 37.2592L41.1712 39.6107L39.6035 38.043Z" fill="black"/>
<path d="M35.6836 41.9629L38.0351 39.6114L39.6028 41.1791L37.2513 43.5306L35.6836 41.9629Z" fill="black"/>
<path d="M37.252 35.6914L39.6035 33.3399L41.1712 34.9076L38.8197 37.2591L37.252 35.6914Z" fill="black"/>
<path d="M33.332 39.6113L35.6836 37.2598L37.2513 38.8275L34.8997 41.179L33.332 39.6113Z" fill="black"/>
<path d="M39.6152 17.6641L33.3445 11.3933L34.9122 9.82561L41.1829 16.0964L39.6152 17.6641Z" fill="black"/>
<path d="M33.3418 16.0977L30.9903 13.7461L32.5579 12.1785L34.9094 14.53L33.3418 16.0977Z" fill="black"/>
<path d="M37.2617 20.0176L34.9102 17.6661L36.4778 16.0984L38.8294 18.4499L37.2617 20.0176Z" fill="black"/>
<path d="M38.0449 11.3936L35.6934 9.04203L37.2611 7.47433L39.6126 9.82585L38.0449 11.3936Z" fill="black"/>
<path d="M41.9668 15.3145L39.6153 12.9629L41.183 11.3952L43.5345 13.7467L41.9668 15.3145Z" fill="black"/>
<path d="M9.03906 35.6875L15.3098 41.9582L13.7421 43.526L7.47136 37.2552L9.03906 35.6875Z" fill="black"/>
<path d="M15.3105 37.2539L17.6621 39.6054L16.0944 41.1731L13.7429 38.8215L15.3105 37.2539Z" fill="black"/>
<path d="M11.3906 33.335L13.7421 35.6865L12.1744 37.2542L9.82292 34.9027L11.3906 33.335Z" fill="black"/>
<path d="M13.7422 30.9834L20.0129 37.2541L18.4452 38.8219L12.1745 32.5511L13.7422 30.9834Z" fill="black"/>
<path d="M15.3105 9.03711L9.0398 15.3079L7.47209 13.7402L13.7428 7.4694L15.3105 9.03711Z" fill="black"/>
<path d="M17.6621 11.3887L11.3914 17.6594L9.82366 16.0917L16.0944 9.82097L17.6621 11.3887Z" fill="black"/>
<path d="M20.0156 13.7412L13.7449 20.012L12.1772 18.4443L18.448 12.1736L20.0156 13.7412Z" fill="black"/>
</g>
<defs>
<clipPath id="clip0_0_1720">
<rect width="51" height="51" fill="white"/>
</clipPath>
</defs>
</svg>
