<svg width="51" height="51" viewBox="0 0 51 51" fill="none" xmlns="http://www.w3.org/2000/svg">
<g clip-path="url(#clip0_0_1713)">
<path d="M25.5 51C39.5833 51 51 39.5833 51 25.5C51 11.4167 39.5833 0 25.5 0C11.4167 0 0 11.4167 0 25.5C0 39.5833 11.4167 51 25.5 51Z" fill="#F0F0F0"/>
<path d="M7.46876 43.5313C-2.48959 33.5729 -2.48959 17.4272 7.46876 7.46875C7.46806 7.46985 22.174 25.5 22.174 25.5L7.46876 43.5313Z" fill="black"/>
<path d="M22.1735 25.4997L3.38162 12.8008C2.799 13.8135 2.28522 14.8706 1.84375 15.9647L11.3573 25.4998L1.84405 35.0354C2.28512 36.1287 2.79841 37.1851 3.38062 38.1971L22.1735 25.4997Z" fill="#FFDA44"/>
<path d="M50.784 22.1736H22.1731L7.46833 7.46875C5.88374 9.05334 4.50704 10.8454 3.38186 12.8008L16.0561 25.4996L3.38086 38.1968C4.50605 40.1528 5.88335 41.9454 7.46833 43.5304L22.1731 28.8257H50.784C50.9257 27.737 50.9998 26.6269 50.9998 25.4996C50.9998 24.3724 50.9257 23.2623 50.784 22.1736Z" fill="#6DA544"/>
<path d="M9.97461 45.7285C14.2746 49.0337 19.6572 51.0001 25.4999 51.0001C37.2816 51.0001 47.1953 43.0094 50.1215 32.1523H23.5509L9.97461 45.7285Z" fill="#0052B4"/>
<path d="M50.1215 18.8478C47.1953 7.99076 37.2816 0 25.4999 0C19.6572 0 14.2746 1.96639 9.97461 5.27163L23.5508 18.8478H50.1215Z" fill="#D80027"/>
</g>
<defs>
<clipPath id="clip0_0_1713">
<rect width="51" height="51" fill="white"/>
</clipPath>
</defs>
</svg>
