<svg width="51" height="51" viewBox="0 0 51 51" fill="none" xmlns="http://www.w3.org/2000/svg">
<g clip-path="url(#clip0_0_1749)">
<path d="M0 25.5C0 28.6192 0.5611 31.6071 1.58608 34.3695L25.5 36.5869L49.4139 34.3695C50.4389 31.6071 51 28.6192 51 25.5C51 22.3808 50.4389 19.393 49.4139 16.6305L25.5 14.4131L1.58608 16.6305C0.5611 19.393 0 22.3808 0 25.5H0Z" fill="#FFDA44"/>
<path d="M49.4138 16.6305C45.8108 6.92016 36.464 0 25.4999 0C14.5358 0 5.18891 6.92016 1.58594 16.6305H49.4138Z" fill="#D80027"/>
<path d="M1.58594 34.3691C5.18891 44.0795 14.5358 50.9996 25.4999 50.9996C36.464 50.9996 45.8108 44.0795 49.4138 34.3691H1.58594Z" fill="#D80027"/>
</g>
<defs>
<clipPath id="clip0_0_1749">
<rect width="51" height="51" fill="white"/>
</clipPath>
</defs>
</svg>
