<svg width="51" height="51" viewBox="0 0 51 51" fill="none" xmlns="http://www.w3.org/2000/svg">
<g clip-path="url(#clip0_0_1810)">
<path d="M25.5 51C39.5833 51 51 39.5833 51 25.5C51 11.4167 39.5833 0 25.5 0C11.4167 0 0 11.4167 0 25.5C0 39.5833 11.4167 51 25.5 51Z" fill="#FFDA44"/>
<path d="M19.9571 22.1739H50.7846C49.1547 9.66231 38.4564 0 25.5005 0C23.5966 0 21.7419 0.210475 19.957 0.606123V22.1739H19.9571Z" fill="#0052B4"/>
<path d="M13.3053 22.1739V3.10059C6.30333 6.921 1.29088 13.9286 0.216797 22.174H13.3053V22.1739Z" fill="#0052B4"/>
<path d="M13.3052 28.8262H0.216797C1.29088 37.0715 6.30333 44.0792 13.3053 47.8995L13.3052 28.8262Z" fill="#0052B4"/>
<path d="M19.957 28.8263V50.394C21.7419 50.7896 23.5966 51.0001 25.5005 51.0001C38.4564 51.0001 49.1547 41.3378 50.7846 28.8262H19.957V28.8263Z" fill="#0052B4"/>
</g>
<defs>
<clipPath id="clip0_0_1810">
<rect width="51" height="51" fill="white"/>
</clipPath>
</defs>
</svg>
