<svg width="51" height="51" viewBox="0 0 51 51" fill="none" xmlns="http://www.w3.org/2000/svg">
<g clip-path="url(#clip0_0_1905)">
<path d="M25.5 51C39.5833 51 51 39.5833 51 25.5C51 11.4167 39.5833 0 25.5 0C11.4167 0 0 11.4167 0 25.5C0 39.5833 11.4167 51 25.5 51Z" fill="#D80027"/>
<path d="M25.5004 37.696C32.2358 37.696 37.696 32.2358 37.696 25.5004C37.696 18.7649 32.2358 13.3047 25.5004 13.3047C18.7649 13.3047 13.3047 18.7649 13.3047 25.5004C13.3047 32.2358 18.7649 37.696 25.5004 37.696Z" fill="#F0F0F0"/>
<path d="M27.003 20.8369L29.0952 23.7201L32.4836 22.6214L30.3881 25.5021L32.4801 28.3852L29.0928 27.2823L26.9973 30.163L26.9995 26.6009L23.6123 25.498L27.0008 24.3993L27.003 20.8369Z" fill="#D80027"/>
<path d="M28.2721 32.707C24.2921 32.707 21.0656 29.4805 21.0656 25.5005C21.0656 21.5205 24.2921 18.2939 28.2721 18.2939C29.513 18.2939 30.6808 18.6077 31.7002 19.1601C30.1009 17.5962 27.914 16.6309 25.5004 16.6309C20.602 16.6309 16.6309 20.6019 16.6309 25.5004C16.6309 30.3989 20.602 34.3699 25.5004 34.3699C27.914 34.3699 30.101 33.4046 31.7002 31.8406C30.6808 32.3932 29.513 32.707 28.2721 32.707Z" fill="#D80027"/>
</g>
<defs>
<clipPath id="clip0_0_1905">
<rect width="51" height="51" fill="white"/>
</clipPath>
</defs>
</svg>
