<svg width="51" height="51" viewBox="0 0 51 51" fill="none" xmlns="http://www.w3.org/2000/svg">
<g clip-path="url(#clip0_0_1911)">
<path d="M25.5 51C39.5833 51 51 39.5833 51 25.5C51 11.4167 39.5833 0 25.5 0C11.4167 0 0 11.4167 0 25.5C0 39.5833 11.4167 51 25.5 51Z" fill="#D80027"/>
<path d="M24.4561 20.8369L26.5484 23.7201L29.9368 22.6214L27.8413 25.5021L29.9333 28.3852L26.546 27.2823L24.4506 30.163L24.4527 26.6009L21.0654 25.498L24.4539 24.3993L24.4561 20.8369Z" fill="#F0F0F0"/>
<path d="M18.7457 32.707C14.7657 32.707 11.5392 29.4805 11.5392 25.5005C11.5392 21.5205 14.7657 18.2939 18.7457 18.2939C19.9867 18.2939 21.1543 18.6078 22.1737 19.1601C20.5745 17.5961 18.3873 16.6309 15.974 16.6309C11.0754 16.6309 7.10449 20.6019 7.10449 25.5004C7.10449 30.3989 11.0755 34.3699 15.974 34.3699C18.3875 34.3699 20.5746 33.4046 22.1737 31.8406C21.1543 32.3931 19.9867 32.707 18.7457 32.707Z" fill="#F0F0F0"/>
</g>
<defs>
<clipPath id="clip0_0_1911">
<rect width="51" height="51" fill="white"/>
</clipPath>
</defs>
</svg>
