<svg width="51" height="51" viewBox="0 0 51 51" fill="none" xmlns="http://www.w3.org/2000/svg">
<g clip-path="url(#clip0_0_2018)">
<path d="M25.5 51C39.5833 51 51 39.5833 51 25.5C51 11.4167 39.5833 0 25.5 0C11.4167 0 0 11.4167 0 25.5C0 39.5833 11.4167 51 25.5 51Z" fill="#F0F0F0"/>
<path d="M24.3916 25.5008H51.0003C51.0003 23.1993 50.6935 20.9696 50.1218 18.8486H24.3916V25.5008Z" fill="#D80027"/>
<path d="M24.3916 12.1962H47.2575C45.6966 9.64895 43.7007 7.39748 41.3736 5.54395H24.3916V12.1962Z" fill="#D80027"/>
<path d="M25.5003 51.0005C31.5017 51.0005 37.0177 48.9262 41.3737 45.457H9.62695C13.9829 48.9262 19.4989 51.0005 25.5003 51.0005Z" fill="#D80027"/>
<path d="M3.74317 38.8046H47.2577C48.5109 36.7597 49.4828 34.5244 50.122 32.1523H0.878906C1.5181 34.5244 2.48999 36.7597 3.74317 38.8046Z" fill="#D80027"/>
<path d="M11.8121 3.98218H14.1359L11.9743 5.55253L12.8 8.09346L10.6386 6.52312L8.47716 8.09346L9.19036 5.89837C7.28722 7.48365 5.61916 9.34097 4.24455 11.4105H4.98913L3.61323 12.41C3.39887 12.7676 3.19328 13.1309 2.99625 13.4996L3.65327 15.5217L2.42748 14.6311C2.12278 15.2767 1.84407 15.9368 1.59355 16.6107L2.31741 18.8387H4.98913L2.82761 20.4091L3.65327 22.95L1.49185 21.3797L0.197127 22.3204C0.0675352 23.3621 0 24.4231 0 25.5H25.5C25.5 11.4168 25.5 9.75654 25.5 0C20.4626 0 15.7667 1.46127 11.8121 3.98218ZM12.8 22.95L10.6386 21.3797L8.47716 22.95L9.30282 20.4091L7.14129 18.8387H9.81302L10.6386 16.2978L11.4641 18.8387H14.1359L11.9743 20.4091L12.8 22.95ZM11.9743 12.9808L12.8 15.5217L10.6386 13.9514L8.47716 15.5217L9.30282 12.9808L7.14129 11.4105H9.81302L10.6386 8.86952L11.4641 11.4105H14.1359L11.9743 12.9808ZM21.9467 22.95L19.7853 21.3797L17.6239 22.95L18.4495 20.4091L16.288 18.8387H18.9597L19.7853 16.2978L20.6109 18.8387H23.2826L21.1211 20.4091L21.9467 22.95ZM21.1211 12.9808L21.9467 15.5217L19.7853 13.9514L17.6239 15.5217L18.4495 12.9808L16.288 11.4105H18.9597L19.7853 8.86952L20.6109 11.4105H23.2826L21.1211 12.9808ZM21.1211 5.55253L21.9467 8.09346L19.7853 6.52312L17.6239 8.09346L18.4495 5.55253L16.288 3.98218H18.9597L19.7853 1.44125L20.6109 3.98218H23.2826L21.1211 5.55253Z" fill="#0052B4"/>
</g>
<defs>
<clipPath id="clip0_0_2018">
<rect width="51" height="51" fill="white"/>
</clipPath>
</defs>
</svg>
