<svg width="51" height="51" viewBox="0 0 51 51" fill="none" xmlns="http://www.w3.org/2000/svg">
<g clip-path="url(#clip0_0_1996)">
<path d="M25.5 51C39.5833 51 51 39.5833 51 25.5C51 11.4167 39.5833 0 25.5 0C11.4167 0 0 11.4167 0 25.5C0 39.5833 11.4167 51 25.5 51Z" fill="#F0F0F0"/>
<path d="M5.27178 9.97559C3.26873 12.5817 1.75836 15.5854 0.878906 18.8485H14.1447L5.27178 9.97559Z" fill="#0052B4"/>
<path d="M50.121 18.8484C49.2416 15.5854 47.7311 12.5817 45.7282 9.97559L36.8555 18.8484H50.121Z" fill="#0052B4"/>
<path d="M0.878906 32.1523C1.75846 35.4153 3.26883 38.4191 5.27178 41.0251L14.1444 32.1523H0.878906Z" fill="#0052B4"/>
<path d="M41.0251 5.27188C38.4191 3.26883 35.4154 1.75846 32.1523 0.878906V14.1446L41.0251 5.27188Z" fill="#0052B4"/>
<path d="M9.97461 45.7291C12.5807 47.7321 15.5844 49.2425 18.8474 50.122V36.8564L9.97461 45.7291Z" fill="#0052B4"/>
<path d="M18.8473 0.878906C15.5843 1.75846 12.5806 3.26883 9.97461 5.27178L18.8473 14.1445V0.878906Z" fill="#0052B4"/>
<path d="M32.1523 50.122C35.4153 49.2425 38.4191 47.7321 41.0251 45.7291L32.1523 36.8564V50.122Z" fill="#0052B4"/>
<path d="M36.8555 32.1523L45.7282 41.0251C47.7311 38.4192 49.2416 35.4153 50.121 32.1523H36.8555Z" fill="#0052B4"/>
<path d="M50.7841 22.1739H28.8263H28.8262V0.215854C27.7373 0.0741094 26.6273 0 25.5 0C24.3725 0 23.2627 0.0741094 22.1739 0.215854V22.1737V22.1738H0.215854C0.0741094 23.2627 0 24.3727 0 25.5C0 26.6275 0.0741094 27.7373 0.215854 28.8261H22.1737H22.1738V50.7841C23.2627 50.9259 24.3725 51 25.5 51C26.6273 51 27.7373 50.926 28.8261 50.7841V28.8263V28.8262H50.7841C50.9259 27.7373 51 26.6275 51 25.5C51 24.3727 50.9259 23.2627 50.7841 22.1739Z" fill="#D80027"/>
<path d="M32.1523 32.1524L43.5313 43.5314C44.0547 43.0083 44.5539 42.4613 45.0302 41.8943L35.2882 32.1523H32.1523V32.1524Z" fill="#D80027"/>
<path d="M18.8478 32.1523H18.8476L7.46875 43.5312C7.9919 44.0546 8.53885 44.5538 9.10583 45.0301L18.8478 35.2879V32.1523Z" fill="#D80027"/>
<path d="M18.8486 18.848V18.8478L7.46963 7.46875C6.94628 7.9919 6.44704 8.53885 5.9707 9.10583L15.7128 18.8479H18.8486V18.848Z" fill="#D80027"/>
<path d="M32.1523 18.8477L43.5314 7.46855C43.0083 6.9452 42.4613 6.44596 41.8943 5.96973L32.1523 15.7118V18.8477Z" fill="#D80027"/>
</g>
<defs>
<clipPath id="clip0_0_1996">
<rect width="51" height="51" fill="white"/>
</clipPath>
</defs>
</svg>
