<svg width="51" height="51" viewBox="0 0 51 51" fill="none" xmlns="http://www.w3.org/2000/svg">
<g clip-path="url(#clip0_0_2026)">
<path d="M25.5 51C39.5833 51 51 39.5833 51 25.5C51 11.4167 39.5833 0 25.5 0C11.4167 0 0 11.4167 0 25.5C0 39.5833 11.4167 51 25.5 51Z" fill="#F0F0F0"/>
<path d="M25.5 18.8475H50.1215C49.4822 16.4754 48.5104 14.2401 47.2573 12.1953H25.5V18.8475Z" fill="#338AF3"/>
<path d="M9.62699 45.4569H41.3738C43.701 43.6034 45.6967 41.352 47.2576 38.8047H3.74316C5.30414 41.3519 7.29992 43.6034 9.62699 45.4569Z" fill="#338AF3"/>
<path d="M25.5 0V5.54346H41.3735C37.0175 2.07427 31.5014 0 25.5 0Z" fill="#338AF3"/>
<path d="M25.5 18.8475H50.1215C49.4822 16.4754 48.5104 14.2401 47.2573 12.1953H25.5V18.8475Z" fill="#338AF3"/>
<path d="M0 25.5C0 27.8017 0.306797 30.0311 0.878455 32.1522H50.1216C50.6932 30.0311 51 27.8017 51 25.5H0Z" fill="#338AF3"/>
<path d="M22.1739 14.924L19.0595 16.389L20.7179 19.4051L17.3362 18.7583L16.9076 22.1744L14.5523 19.6618L12.1967 22.1744L11.7683 18.7583L8.38655 19.4049L10.0449 16.3889L6.93066 14.924L10.045 13.4592L8.38655 10.4431L11.7682 11.0899L12.1968 7.67383L14.5523 10.1864L16.9077 7.67383L17.3362 11.0899L20.718 10.4431L19.0596 13.4593L22.1739 14.924Z" fill="#FFDA44"/>
</g>
<defs>
<clipPath id="clip0_0_2026">
<rect width="51" height="51" fill="white"/>
</clipPath>
</defs>
</svg>
