<svg width="51" height="51" viewBox="0 0 51 51" fill="none" xmlns="http://www.w3.org/2000/svg">
<g clip-path="url(#clip0_0_2036)">
<path d="M1.20408 17.7396C0.422941 20.1868 -9.95918e-05 22.7939 1.75865e-08 25.5002C-9.95918e-05 28.2066 0.423041 30.8138 1.20418 33.261L25.5 34.3699L49.7958 33.2612C50.5769 30.8139 51.0001 28.2066 51.0001 25.5004C51 22.794 50.577 20.1868 49.7958 17.7395L25.5 16.6309L1.20408 17.7396Z" fill="#F0F0F0"/>
<path d="M49.796 17.7395L25.5002 16.6309L1.2043 17.7395C0.972809 18.4651 0.77349 19.2049 0.606445 19.9569H50.3936C50.2268 19.2048 50.0275 18.4649 49.796 17.7395Z" fill="#D80027"/>
<path d="M0.606445 31.0439C0.773291 31.796 0.972609 32.5357 1.2041 33.2613L1.20649 33.2613L25.4998 34.37L49.7956 33.2613C50.0271 32.5358 50.2265 31.796 50.3934 31.0439H0.606445Z" fill="#D80027"/>
<path d="M25.4998 50.9999C36.8768 50.9999 46.512 43.5488 49.7956 33.2607H1.2041C4.48772 43.5487 14.1231 50.9999 25.4998 50.9999Z" fill="#6DA544"/>
<path d="M25.4999 9.98692e-10C14.1231 9.96104e-05 4.48792 7.45118 1.2041 17.7391L49.7956 17.7392C46.5122 7.45108 36.8769 -9.96084e-05 25.4999 9.98692e-10Z" fill="#338AF3"/>
<path d="M11.6529 10.533C11.6529 8.14465 13.3314 6.14947 15.5729 5.65999C15.2284 5.58469 14.8709 5.54395 14.5038 5.54395C11.7484 5.54395 9.51465 7.77759 9.51465 10.5331C9.51465 13.2886 11.7482 15.5222 14.5038 15.5222C14.8709 15.5222 15.2283 15.4814 15.5729 15.4062C13.3315 14.9165 11.6529 12.9213 11.6529 10.533Z" fill="#F0F0F0"/>
<path d="M18.5216 12.8008L18.8593 13.8402H19.9522L19.0681 14.4827L19.4057 15.5221L18.5216 14.8797L17.6373 15.5221L17.9751 14.4827L17.0908 13.8402H18.1837L18.5216 12.8008Z" fill="#F0F0F0"/>
<path d="M22.0097 12.8008L22.3475 13.8402H23.4404L22.5561 14.4827L22.8939 15.5221L22.0097 14.8797L21.1255 15.5221L21.4632 14.4827L20.5791 13.8402H21.6719L22.0097 12.8008Z" fill="#F0F0F0"/>
<path d="M25.4982 12.8008L25.8358 13.8402H26.9289L26.0446 14.4827L26.3823 15.5221L25.4982 14.8797L24.6138 15.5221L24.9517 14.4827L24.0674 13.8402H25.1604L25.4982 12.8008Z" fill="#F0F0F0"/>
<path d="M28.9865 12.8008L29.3242 13.8402H30.417L29.5329 14.4827L29.8707 15.5221L28.9865 14.8797L28.1021 15.5221L28.44 14.4827L27.5557 13.8402H28.6486L28.9865 12.8008Z" fill="#F0F0F0"/>
<path d="M32.4755 12.8008L32.8133 13.8402H33.9062L33.0221 14.4827L33.3598 15.5221L32.4755 14.8797L31.5913 15.5221L31.9291 14.4827L31.0449 13.8402H32.1377L32.4755 12.8008Z" fill="#F0F0F0"/>
<path d="M22.0097 9.17285L22.3475 10.2122H23.4404L22.5561 10.8548L22.8939 11.8941L22.0097 11.2517L21.1255 11.8941L21.4632 10.8548L20.5791 10.2122H21.6719L22.0097 9.17285Z" fill="#F0F0F0"/>
<path d="M25.4982 9.17285L25.8358 10.2122H26.9289L26.0446 10.8548L26.3823 11.8941L25.4982 11.2517L24.6138 11.8941L24.9517 10.8548L24.0674 10.2122H25.1604L25.4982 9.17285Z" fill="#F0F0F0"/>
<path d="M28.9865 9.17285L29.3242 10.2122H30.417L29.5329 10.8548L29.8707 11.8941L28.9865 11.2517L28.1021 11.8941L28.44 10.8548L27.5557 10.2122H28.6486L28.9865 9.17285Z" fill="#F0F0F0"/>
<path d="M32.4755 9.17285L32.8133 10.2122H33.9062L33.0221 10.8548L33.3598 11.8941L32.4755 11.2517L31.5913 11.8941L31.9291 10.8548L31.0449 10.2122H32.1377L32.4755 9.17285Z" fill="#F0F0F0"/>
<path d="M25.4982 5.54395L25.8358 6.58347H26.9289L26.0446 7.22585L26.3823 8.26537L25.4982 7.62299L24.6138 8.26537L24.9517 7.22585L24.0674 6.58347H25.1604L25.4982 5.54395Z" fill="#F0F0F0"/>
<path d="M28.9865 5.54395L29.3242 6.58347H30.417L29.5329 7.22585L29.8707 8.26537L28.9865 7.62299L28.1021 8.26537L28.44 7.22585L27.5557 6.58347H28.6486L28.9865 5.54395Z" fill="#F0F0F0"/>
<path d="M32.4755 5.54395L32.8133 6.58347H33.9062L33.0221 7.22585L33.3598 8.26537L32.4755 7.62299L31.5913 8.26537L31.9291 7.22585L31.0449 6.58347H32.1377L32.4755 5.54395Z" fill="#F0F0F0"/>
</g>
<defs>
<clipPath id="clip0_0_2036">
<rect width="51" height="51" fill="white"/>
</clipPath>
</defs>
</svg>
